<?xml version="1.0" encoding="UTF-8"?>
<svg width="362px" height="108px" viewBox="0 0 362 108" version="1.1" xmlns="http://www.w3.org/2000/svg" xmlns:xlink="http://www.w3.org/1999/xlink">
    <!-- Generator: Sketch 53.2 (72643) - https://sketchapp.com -->
    <title>Group 35 Copy@0.5x</title>
    <desc>Created with Sketch.</desc>
    <defs>
        <polygon id="path-1" points="0 108 362 108 362 0 0 0"></polygon>
    </defs>
    <g id="Page-1" stroke="none" stroke-width="1" fill="none" fill-rule="evenodd">
        <g id="Traibe-/-Brand-Guideline-/-Logos" transform="translate(-429.000000, -481.000000)">
            <g id="Group-35-Copy" transform="translate(429.000000, 481.000000)">
                <path d="M0,65.0540132 L0,57.2691967 L6.78257501,57.2691967 L6.78257501,46 L16.3107178,46 L16.3107178,57.2691967 L26,57.2691967 L26,65.0540132 L16.3107178,65.0540132 L16.3107178,83.1356051 C16.3107178,84.8657372 16.6190519,86.2979194 17.2388189,87.4337076 C17.8570364,88.5687178 19.2437651,89.1358339 21.3974554,89.1358339 C22.0435625,89.1358339 22.741575,89.0681534 23.4961414,88.9327923 C24.2507077,88.7974313 24.9223801,88.5967235 25.5150323,88.3252235 L25.8388606,95.9466732 C24.9766098,96.2710729 23.9539942,96.5262363 22.7702393,96.716053 C21.5849349,96.9050917 20.4538601,97 19.3793391,97 C16.7949108,97 14.6954501,96.6367034 13.0809571,95.9054425 C11.4649146,95.1765155 10.1850958,94.1768663 9.24537409,92.9057171 C8.30255356,91.6369017 7.65644647,90.1767137 7.30782754,88.528265 C6.95610977,86.8790384 6.78257501,85.1092315 6.78257501,83.2172885 L6.78257501,65.0540132 L0,65.0540132 Z" id="Fill-1" fill="#231F20"></path>
                <path d="M31,57.1326911 L40.2478363,57.1326911 L40.2478363,63.6110938 L40.4090909,63.6110938 C41.4815498,61.3441579 42.9822207,59.5091672 44.9118752,58.1045681 C46.8423012,56.7015227 49.0936934,56 51.6675948,56 C52.0417981,56 52.4445488,56.0147607 52.8735324,56.0396209 C53.3025159,56.0683654 53.6790339,56.1351771 54,56.2423866 L54,65.1493163 C53.3565247,64.9877253 52.8056357,64.8805158 52.3511909,64.8253574 C51.8944314,64.7725295 51.453103,64.7453387 51.0241194,64.7453387 C48.8251929,64.7453387 47.056793,65.1493163 45.7173767,65.9596022 C44.3764173,66.7691112 43.3301912,67.7409882 42.5810131,68.8744562 C41.8287487,70.0079242 41.3202952,71.1693599 41.0517947,72.3564326 C40.7832942,73.5442822 40.6513586,74.4889683 40.6513586,75.190491 L40.6513586,96 L31,96 L31,57.1326911 Z" id="Fill-3" fill="#231F20"></path>
                <mask id="mask-2" fill="white">
                    <use xlink:href="#path-1"></use>
                </mask>
                <g id="Clip-6"></g>
                <path d="M58.3254423,96 L67.6753053,96 L67.6753053,57.0624908 L58.3254423,57.0624908 L58.3254423,96 Z M57,43.8402372 C57,42.2727748 57.5584351,40.9084444 58.6768004,39.7441327 C59.7921754,38.5821558 61.2080738,38 62.9222527,38 C64.6371792,38 66.0784949,38.5549159 67.2469474,39.6631912 C68.4161475,40.7722448 69,42.1645935 69,43.8402372 C69,45.5174376 68.4161475,46.9113428 67.2469474,48.0180615 C66.0784949,49.1263368 64.6371792,49.6812528 62.9222527,49.6812528 C61.2080738,49.6812528 59.7921754,49.0998752 58.6768004,47.9363418 C57.5584351,46.7751432 57,45.4092562 57,43.8402372 L57,43.8402372 Z" id="Fill-5" fill="#231F20" mask="url(#mask-2)"></path>
                <path d="M108.088259,76.3866378 C108.088259,74.8848435 107.858333,73.3954097 107.397703,71.9183363 C106.937851,70.4420355 106.247295,69.11406 105.326814,67.9328648 C104.404773,66.7524422 103.241116,65.7991427 101.834283,65.0745116 C100.425112,64.3491079 98.7735446,63.9875648 96.8788019,63.9875648 C95.0908382,63.9875648 93.4930503,64.3630134 92.085438,65.114683 C90.6754876,65.8671252 89.4720805,66.8327851 88.4705402,68.0132077 C87.4682205,69.1944029 86.7090764,70.5370564 86.195446,72.0396232 C85.6802568,73.54219 85.4238314,75.0463018 85.4238314,76.5480961 C85.4238314,78.0514354 85.6802568,79.5408692 86.195446,81.0171701 C86.7090764,82.4934709 87.4682205,83.8222189 88.4705402,85.0026415 C89.4720805,86.1846093 90.6754876,87.1363636 92.085438,87.8617673 C93.4930503,88.585626 95.0908382,88.9479416 96.8788019,88.9479416 C98.7735446,88.9479416 100.425112,88.572493 101.834283,87.8208234 C103.241116,87.0699262 104.404773,86.1034938 105.326814,84.9222986 C106.247295,83.741876 106.937851,82.3992225 107.397703,80.8966557 C107.858333,79.3948614 108.088259,77.8899771 108.088259,76.3866378 L108.088259,76.3866378 Z M85.7480654,35 L85.7480654,62.1358154 L85.9920203,62.1358154 C86.4799302,61.4907546 87.1018984,60.8209729 87.8602631,60.1226077 C88.6194073,59.425015 89.5266391,58.7807267 90.582738,58.1889703 C91.6388368,57.5995315 92.8695233,57.1027961 94.2786943,56.700309 C95.6870859,56.2970494 97.2840945,56.0961922 99.0712788,56.0961922 C101.834283,56.0961922 104.378273,56.6191936 106.707926,57.6667414 C109.03524,58.7135167 111.0391,60.1496461 112.718726,61.9743571 C114.397573,63.7998405 115.697627,65.9466956 116.618108,68.4156948 C117.53859,70.8854665 118,73.54219 118,76.3866378 C118,79.2334031 117.552619,81.9032596 116.659417,84.3985247 C115.766214,86.8953349 114.492661,89.0692285 112.841873,90.9202053 C111.188747,92.7727273 109.184887,94.2498006 106.830293,95.3498804 C104.473361,96.4491876 101.804665,97 98.8281033,97 C96.0650992,97 93.4790209,96.4082436 91.0698684,95.229366 C88.6599365,94.0481709 86.7761056,92.3308413 85.4238314,90.0758323 L85.2617143,90.0758323 L85.2617143,95.8728818 L76,95.8728818 L76,35 L85.7480654,35 Z" id="Fill-7" fill="#231F20" mask="url(#mask-2)"></path>
                <path d="M150.370104,72.6259538 C150.370104,71.388551 150.195337,70.2045781 149.848883,69.0748092 C149.500118,67.9450404 148.95272,66.9500076 148.203609,66.0897107 C147.453727,65.2286394 146.504442,64.5425701 145.354213,64.0307283 C144.203214,63.5196608 142.853581,63.2633527 141.302235,63.2633527 C138.413574,63.2633527 135.966835,64.1391365 133.960479,65.8868324 C131.954122,67.6360769 130.842388,69.8816764 130.629896,72.6259538 L150.370104,72.6259538 Z M160,76.9847397 L160,78.2747979 C160,78.7068822 159.971514,79.1366435 159.919161,79.5664048 L130.629896,79.5664048 C130.736912,80.9664199 131.097224,82.2448629 131.713913,83.4001851 C132.327523,84.5578303 133.143616,85.5528632 134.159882,86.3868324 C135.176149,87.2223502 136.327148,87.8797688 137.611339,88.3637342 C138.895531,88.848474 140.231305,89.0908438 141.624052,89.0908438 C144.031526,89.0908438 146.06252,88.64637 147.722422,87.7589711 C149.380014,86.8707978 150.743505,85.6473332 151.814435,84.0870288 L158.233852,89.2526819 C154.435171,94.4167863 148.925774,97 141.703352,97 C138.707675,97 135.951437,96.5276498 133.438487,95.586821 C130.922457,94.6459923 128.744413,93.3156682 126.898966,91.591977 C125.051978,89.8713832 123.608418,87.7589711 122.565205,85.2570635 C121.521991,82.755156 121,79.9171829 121,76.7415955 C121,73.621761 121.521991,70.7837879 122.565205,68.2269019 C123.608418,65.6723389 125.03889,63.4933331 126.858931,61.6898844 C128.676662,59.8879844 130.830839,58.4887437 133.318383,57.4929365 C135.805926,56.4979036 138.493643,56 141.382304,56 C144.056933,56 146.531388,56.4444738 148.80567,57.3310984 C151.078411,58.2192717 153.044733,59.538755 154.703865,61.2856765 C156.360688,63.0356954 157.658737,65.2147012 158.595704,67.8242427 C159.530362,70.4337841 160,73.487025 160,76.9847397 L160,76.9847397 Z" id="Fill-8" fill="#231F20" mask="url(#mask-2)"></path>
                <path d="M170.331489,108 L164.444157,108 L201.380371,11.0904638 C199.925478,10.4925635 196.655863,9.38528333 189.40009,7.69873872 C180.17772,5.55561575 165.972262,4.14239697 149.117934,7.00765921 L165.244816,20.4052838 L144.813226,37.1713386 C154.389974,35.8458636 170.102507,34.8659284 184.42635,38.2894897 L182.270491,43.3615474 C159.932275,38.3430678 135.921088,44.2692687 135.679645,44.3290588 L124,47.252558 L156.747555,20.3796595 L137.041854,4.00884003 L142.422155,2.81381603 C181.371698,-5.83710176 208.654836,8.16463502 209.79741,8.76564125 L212,9.92261706 L170.331489,108 Z" id="Fill-9" fill="#231F20" mask="url(#mask-2)"></path>
                <polygon id="Fill-10" fill="#231F20" mask="url(#mask-2)" points="211.08785 68.9153268 211.08785 78 208.91215 78 208.91215 68.9153268 206 68.9153268 206 67 214 67 214 68.9153268"></polygon>
                <polygon id="Fill-11" fill="#231F20" mask="url(#mask-2)" points="218 78 218 67 225 67 225 68.9153268 220.074931 68.9153268 220.074931 71.4956119 224.268813 71.4956119 224.268813 73.411711 220.074931 73.411711 220.074931 76.0846732 225 76.0846732 225 78"></polygon>
                <path d="M232.999618,78 C231.839424,78 230.862418,77.6042947 230.067837,76.8144031 C229.5946,76.3435062 229.304551,75.7974177 229.182425,75.1890492 C229.061063,74.5814403 229,73.6844576 229,72.5003798 C229,71.3147828 229.061063,70.4185597 229.182425,69.8109508 C229.304551,69.1873921 229.5946,68.6557343 230.067837,68.1848374 C230.862418,67.3949458 231.839424,67 232.999618,67 C235.091785,67 236.634386,68.2152178 237,70.4185597 L234.847534,70.4185597 C234.618548,69.4919561 234.037687,68.8835877 233.015647,68.8835877 C232.43555,68.8835877 231.976815,69.0658703 231.656235,69.4456259 C231.213529,69.9165228 231.121935,70.4033695 231.121935,72.5003798 C231.121935,74.5966305 231.213529,75.0827177 231.656235,75.5536146 C231.976815,75.9333702 232.43555,76.1164123 233.015647,76.1164123 C234.037687,76.1164123 234.618548,75.5080439 234.847534,74.5814403 L237,74.5814403 C236.634386,76.7840226 235.076519,78 232.999618,78" id="Fill-12" fill="#231F20" mask="url(#mask-2)"></path>
                <polygon id="Fill-13" fill="#231F20" mask="url(#mask-2)" points="247.857267 78 247.857267 73.3962648 244.143504 73.3962648 244.143504 78 242 78 242 67 244.143504 67 244.143504 71.4956119 247.857267 71.4956119 247.857267 67 250 67 250 78"></polygon>
                <polygon id="Fill-14" fill="#231F20" mask="url(#mask-2)" points="264.471564 74.4658448 264.471564 77 262.544234 77 262.544234 74.4658448 260 74.4658448 260 72.5341552 262.544234 72.5341552 262.544234 70 264.471564 70 264.471564 72.5341552 267 72.5341552 267 74.4658448"></polygon>
                <path d="M280.999618,78 C279.839424,78 278.862418,77.6042947 278.067837,76.8144031 C277.5946,76.3435062 277.304551,75.7974177 277.182425,75.1890492 C277.061063,74.5814403 277,73.6844576 277,72.5003798 C277,71.3147828 277.061063,70.4185597 277.182425,69.8109508 C277.304551,69.1873921 277.5946,68.6557343 278.067837,68.1848374 C278.862418,67.3949458 279.839424,67 280.999618,67 C283.091785,67 284.634386,68.2152178 285,70.4185597 L282.847534,70.4185597 C282.618548,69.4919561 282.037687,68.8835877 281.015647,68.8835877 C280.43555,68.8835877 279.976815,69.0658703 279.656235,69.4456259 C279.213529,69.9165228 279.121935,70.4033695 279.121935,72.5003798 C279.121935,74.5966305 279.213529,75.0827177 279.656235,75.5536146 C279.976815,75.9333702 280.43555,76.1164123 281.015647,76.1164123 C282.037687,76.1164123 282.618548,75.5080439 282.847534,74.5814403 L285,74.5814403 C284.634386,76.7840226 283.076519,78 280.999618,78" id="Fill-15" fill="#231F20" mask="url(#mask-2)"></path>
                <path d="M294.00742,68.9153268 L292.063439,68.9153268 L292.063439,71.8199817 L294.00742,71.8199817 C294.913374,71.8199817 295.506956,71.2168083 295.506956,70.3680404 C295.506956,69.517728 294.913374,68.9153268 294.00742,68.9153268 L294.00742,68.9153268 Z M295.610091,78 L293.547394,73.6117391 L292.063439,73.6117391 L292.063439,78 L290,78 L290,67 L294.140976,67 C296.293452,67 297.569653,68.5291722 297.569653,70.3680404 C297.569653,71.9126588 296.664441,72.8703223 295.63977,73.2564769 L298,78 L295.610091,78 Z" id="Fill-16" fill="#231F20" mask="url(#mask-2)"></path>
                <polygon id="Fill-17" fill="#231F20" mask="url(#mask-2)" points="302 78 302 67 309 67 309 68.9153268 304.074931 68.9153268 304.074931 71.4956119 308.268813 71.4956119 308.268813 73.411711 304.074931 73.411711 304.074931 76.0846732 309 76.0846732 309 78"></polygon>
                <path d="M317.047755,70.244471 L315.614295,74.245805 L318.432665,74.245805 L317.047755,70.244471 Z M319.690226,78 L319.021649,76.0530085 L314.993473,76.0530085 L314.309774,78 L312,78 L316.124483,67 L317.860395,67 L322,78 L319.690226,78 Z" id="Fill-18" fill="#231F20" mask="url(#mask-2)"></path>
                <polygon id="Fill-19" fill="#231F20" mask="url(#mask-2)" points="329.08785 68.9153268 329.08785 78 326.91215 78 326.91215 68.9153268 324 68.9153268 324 67 332 67 332 68.9153268"></polygon>
                <polygon id="Fill-20" fill="#231F20" mask="url(#mask-2)" points="336 78 338 78 338 67 336 67"></polygon>
                <polygon id="Fill-21" fill="#231F20" mask="url(#mask-2)" points="347.306268 78 345.678084 78 342 67 344.254108 67 346.491785 74.168574 348.730244 67 351 67"></polygon>
                <polygon id="Fill-22" fill="#231F20" mask="url(#mask-2)" points="355 78 355 67 362 67 362 68.9153268 357.074931 68.9153268 357.074931 71.4956119 361.268813 71.4956119 361.268813 73.411711 357.074931 73.411711 357.074931 76.0846732 362 76.0846732 362 78"></polygon>
                <path d="M209.969471,96 C208.320931,96 207.068498,95.6506249 206,94.5713595 L207.374547,93.2042395 C208.061439,93.888559 208.992559,94.1164123 210,94.1164123 C211.252433,94.1164123 211.92406,93.6447559 211.92406,92.7789132 C211.92406,92.3991576 211.81721,92.0801629 211.587483,91.8674998 C211.374547,91.6700269 211.130319,91.5629359 210.625835,91.4877443 L209.313108,91.3047021 C208.381988,91.1687496 207.695096,90.8801353 207.205877,90.4092384 C206.686892,89.8920113 206.427399,89.1932611 206.427399,88.2818477 C206.427399,86.3519298 207.86224,85 210.2137,85 C211.709597,85 212.794123,85.3645654 213.725243,86.2607885 L212.381988,87.5830974 C211.695096,86.9299178 210.870826,86.838017 210.152643,86.838017 C209.023087,86.838017 208.473574,87.4615756 208.473574,88.2051371 C208.473574,88.4793206 208.565159,88.7679348 208.794123,88.9805979 C209.007823,89.1780708 209.358901,89.3451633 209.801565,89.4059242 L211.083763,89.5889664 C212.076703,89.7249189 212.702538,89.9991024 213.160466,90.4236691 C213.740508,90.9712767 214,91.7611683 214,92.7181523 C214,94.8144031 212.243847,96 209.969471,96" id="Fill-23" fill="#231F20" mask="url(#mask-2)"></path>
                <polygon id="Fill-24" fill="#231F20" mask="url(#mask-2)" points="222.08785 86.9153268 222.08785 96 219.91215 96 219.91215 86.9153268 217 86.9153268 217 85 225 85 225 86.9153268"></polygon>
                <path d="M232.047755,88.244471 L230.614295,92.245805 L233.432665,92.245805 L232.047755,88.244471 Z M234.690226,96 L234.021649,94.0530085 L229.993473,94.0530085 L229.309774,96 L227,96 L231.124483,85 L232.860395,85 L237,96 L234.690226,96 Z" id="Fill-25" fill="#231F20" mask="url(#mask-2)"></path>
                <polygon id="Fill-26" fill="#231F20" mask="url(#mask-2)" points="243.074931 86.9153268 243.074931 89.6191814 247.268813 89.6191814 247.268813 91.5345082 243.074931 91.5345082 243.074931 96 241 96 241 85 248 85 248 86.9153268"></polygon>
                <polygon id="Fill-27" fill="#231F20" mask="url(#mask-2)" points="255.074931 86.9153268 255.074931 89.6191814 259.268813 89.6191814 259.268813 91.5345082 255.074931 91.5345082 255.074931 96 253 96 253 85 260 85 260 86.9153268"></polygon>
                <polygon id="Fill-28" fill="#231F20" mask="url(#mask-2)" points="264 96 266 96 266 85 264 85"></polygon>
                <polygon id="Fill-29" fill="#231F20" mask="url(#mask-2)" points="277.18015 96 273.040726 89.2484729 273.040726 96 271 96 271 85 272.820583 85 276.960007 91.7360809 276.960007 85 279 85 279 96"></polygon>
                <path d="M290.975711,94.7695919 C290.146488,95.6202444 289.152325,96 287.947279,96 C286.802485,96 285.838449,95.6050542 285.054415,94.8151626 C284.58746,94.3435062 284.301262,93.7974177 284.180757,93.1890492 C284.060252,92.5814403 284,91.6844576 284,90.5003798 C284,89.3147828 284.060252,88.4185597 284.180757,87.8109508 C284.301262,87.1881516 284.58746,86.6557343 285.054415,86.1848374 C285.838449,85.3949458 286.802485,85 287.947279,85 C290.388251,85 291.698738,86.5805427 291.984937,88.4641304 L289.875353,88.4641304 C289.619281,87.4152455 288.986632,86.8835877 287.947279,86.8835877 C287.389945,86.8835877 286.938053,87.0818201 286.605912,87.4615756 C286.215025,87.962853 286.094521,88.3577988 286.094521,90.5003798 C286.094521,92.627011 286.184899,93.0523372 286.605912,93.5536146 C286.92299,93.9333702 287.374882,94.1164123 287.947279,94.1164123 C288.564865,94.1164123 289.061947,93.9189394 289.438524,93.5080439 C289.755602,93.1434786 289.921295,92.6573914 289.921295,92.0642132 L289.921295,91.6540772 L287.947279,91.6540772 L287.947279,89.8920113 L292,89.8920113 L292,91.472554 C292,93.0523372 291.713802,93.9789408 290.975711,94.7695919" id="Fill-30" fill="#231F20" mask="url(#mask-2)"></path>
                <path d="M305.999618,96 C304.839424,96 303.862418,95.6042947 303.067837,94.8144031 C302.5946,94.3435062 302.304551,93.7974177 302.182425,93.1890492 C302.061063,92.5814403 302,91.6844576 302,90.5003798 C302,89.3147828 302.061063,88.4185597 302.182425,87.8109508 C302.304551,87.1873921 302.5946,86.6557343 303.067837,86.1848374 C303.862418,85.3949458 304.839424,85 305.999618,85 C308.091785,85 309.634386,86.2152178 310,88.4185597 L307.847534,88.4185597 C307.618548,87.4919561 307.037687,86.8835877 306.015647,86.8835877 C305.43555,86.8835877 304.976815,87.0658703 304.656235,87.4456259 C304.213529,87.9165228 304.121935,88.4033695 304.121935,90.5003798 C304.121935,92.5966305 304.213529,93.0827177 304.656235,93.5536146 C304.976815,93.9333702 305.43555,94.1164123 306.015647,94.1164123 C307.037687,94.1164123 307.618548,93.5080439 307.847534,92.5814403 L310,92.5814403 C309.634386,94.7840226 308.076519,96 305.999618,96" id="Fill-31" fill="#231F20" mask="url(#mask-2)"></path>
                <path d="M319.353883,87.4615756 C319.049733,87.1122005 318.57754,86.8835877 318.000416,86.8835877 C317.422531,86.8835877 316.935131,87.1122005 316.630981,87.4615756 C316.220379,87.9172823 316.113926,88.4185597 316.113926,90.5003798 C316.113926,92.5814403 316.220379,93.0827177 316.630981,93.5384244 C316.935131,93.888559 317.422531,94.1164123 318.000416,94.1164123 C318.57754,94.1164123 319.049733,93.888559 319.353883,93.5384244 C319.764485,93.0827177 319.886145,92.5814403 319.886145,90.5003798 C319.886145,88.4185597 319.764485,87.9172823 319.353883,87.4615756 M320.921015,94.8151626 C320.160641,95.5746738 319.232223,96 318.000416,96 C316.768609,96 315.824984,95.5746738 315.063849,94.8151626 C313.969669,93.720707 314.000084,92.3687772 314.000084,90.5003798 C314.000084,88.6312228 313.969669,87.279293 315.063849,86.1848374 C315.824984,85.4253262 316.768609,85 318.000416,85 C319.232223,85 320.160641,85.4253262 320.921015,86.1848374 C322.015955,87.279293 321.999987,88.6312228 321.999987,90.5003798 C321.999987,92.3687772 322.015955,93.720707 320.921015,94.8151626" id="Fill-32" fill="#231F20" mask="url(#mask-2)"></path>
                <path d="M331.353883,87.4615756 C331.049733,87.1122005 330.57754,86.8835877 330.000416,86.8835877 C329.422531,86.8835877 328.935131,87.1122005 328.630981,87.4615756 C328.220379,87.9172823 328.113926,88.4185597 328.113926,90.5003798 C328.113926,92.5814403 328.220379,93.0827177 328.630981,93.5384244 C328.935131,93.888559 329.422531,94.1164123 330.000416,94.1164123 C330.57754,94.1164123 331.049733,93.888559 331.353883,93.5384244 C331.764485,93.0827177 331.886145,92.5814403 331.886145,90.5003798 C331.886145,88.4185597 331.764485,87.9172823 331.353883,87.4615756 M332.921015,94.8151626 C332.160641,95.5746738 331.232223,96 330.000416,96 C328.768609,96 327.824984,95.5746738 327.063849,94.8151626 C325.969669,93.720707 326.000084,92.3687772 326.000084,90.5003798 C326.000084,88.6312228 325.969669,87.279293 327.063849,86.1848374 C327.824984,85.4253262 328.768609,85 330.000416,85 C331.232223,85 332.160641,85.4253262 332.921015,86.1848374 C334.015955,87.279293 333.999987,88.6312228 333.999987,90.5003798 C333.999987,92.3687772 334.015955,93.720707 332.921015,94.8151626" id="Fill-33" fill="#231F20" mask="url(#mask-2)"></path>
                <path d="M343.210897,86.9153268 L341.176269,86.9153268 L341.176269,89.928105 L343.210897,89.928105 C344.197691,89.928105 344.823731,89.3257039 344.823731,88.4298252 C344.823731,87.5339465 344.197691,86.9153268 343.210897,86.9153268 M343.321236,91.858878 L341.176269,91.858878 L341.176269,96 L339,96 L339,85 L343.321236,85 C345.621931,85 347,86.5600646 347,88.4298252 C347,90.2988135 345.621931,91.858878 343.321236,91.858878" id="Fill-34" fill="#231F20" mask="url(#mask-2)"></path>
            </g>
        </g>
    </g>
</svg>