<svg width="47" height="47" viewBox="0 0 47 47" fill="none" xmlns="http://www.w3.org/2000/svg">
<path d="M7.83333 0C3.49367 0 0 3.49361 0 7.83323V39.1666C0 43.5062 3.49367 47 7.83333 47H39.1667C43.5063 47 47 43.5062 47 39.1666V7.83323C47 3.49361 43.5063 0 39.1667 0H7.83333ZM14.328 8.81241H32.672C35.6909 8.81241 38.1875 11.3091 38.1875 14.3279V32.6719C38.1875 35.6907 35.6909 38.1874 32.672 38.1874H14.328C11.3091 38.1874 8.8125 35.6907 8.8125 32.6719V14.3279C8.8125 11.3091 11.3091 8.81241 14.328 8.81241ZM14.328 12.4843C13.2794 12.4843 12.4844 13.2793 12.4844 14.3279V32.6719C12.4844 33.7206 13.2793 34.5155 14.328 34.5155H32.672C33.7206 34.5155 34.5194 33.7205 34.5194 32.6719V14.3279C34.5194 13.2793 33.7206 12.4843 32.672 12.4843H14.328ZM30.8437 14.3241C31.33 14.3239 31.7965 14.5168 32.1407 14.8603C32.485 15.2038 32.6788 15.6699 32.6797 16.1562C32.6797 16.3973 32.6323 16.6361 32.5401 16.8589C32.4478 17.0816 32.3126 17.284 32.1421 17.4545C31.9716 17.625 31.7692 17.7603 31.5464 17.8525C31.3236 17.9447 31.0849 17.9922 30.8437 17.9921C30.6026 17.9922 30.3639 17.9447 30.1411 17.8525C29.9183 17.7603 29.7159 17.625 29.5454 17.4545C29.3749 17.284 29.2397 17.0816 29.1474 16.8589C29.0552 16.6361 29.0077 16.3973 29.0078 16.1562C29.0087 15.6699 29.2025 15.2038 29.5468 14.8603C29.891 14.5168 30.3575 14.3239 30.8437 14.3241ZM23.5 16.1562C27.5331 16.1562 30.8437 19.4668 30.8437 23.4999C30.8437 27.533 27.5331 30.8437 23.5 30.8437C19.4669 30.8437 16.1562 27.533 16.1562 23.4999C16.1562 19.4668 19.4669 16.1562 23.5 16.1562ZM23.5 19.8242C21.4508 19.8242 19.8281 21.4507 19.8281 23.4999C19.8281 25.5491 21.4508 27.1718 23.5 27.1718C25.5492 27.1718 27.1719 25.5491 27.1719 23.4999C27.1719 21.4507 25.5492 19.8242 23.5 19.8242Z" fill="white"/>
</svg>
