<svg width="47" height="47" viewBox="0 0 47 47" fill="none" xmlns="http://www.w3.org/2000/svg">
<path d="M7.83333 0C3.49366 0 0 3.49361 0 7.83323V39.1666C0 43.5062 3.49366 47 7.83333 47H39.1667C43.5063 47 47 43.5062 47 39.1666V7.83323C47 3.49361 43.5063 0 39.1667 0H7.83333ZM12.4002 9.38998C14.3843 9.38924 15.9952 10.878 15.9918 12.7099C15.9914 14.5394 14.3816 16.0232 12.4002 16.0224C10.4189 16.0232 8.81283 14.5394 8.8125 12.7099C8.80858 10.878 10.4162 9.38924 12.4002 9.38998ZM31.0426 18.1299C35.292 18.1299 38.1875 20.7682 38.1875 25.7336V37.6098H31.7426V25.7336C31.7426 24.407 30.9646 23.0716 28.851 23.0716C25.3088 23.0716 25.2939 26.6362 25.2939 27.9368V37.6098H18.849V18.2677H25.2939V21.4919C25.2939 21.4919 26.8724 18.1299 31.0426 18.1299ZM9.17968 18.2674H15.6246V37.6098H9.17968V18.2674Z" fill="white"/>
</svg>
