<?xml version="1.0" encoding="UTF-8"?>
<svg width="213px" height="108px" viewBox="0 0 213 108" version="1.1" xmlns="http://www.w3.org/2000/svg" xmlns:xlink="http://www.w3.org/1999/xlink">
    <!-- Generator: Sketch 53.2 (72643) - https://sketchapp.com -->
    <title>Group 11@0.5x</title>
    <desc>Created with Sketch.</desc>
    <defs>
        <polygon id="path-1" points="0 0.224554545 25.6649059 0.224554545 25.6649059 50.8830091 0 50.8830091"></polygon>
        <polygon id="path-3" points="0 108 213 108 213 0 0 0"></polygon>
    </defs>
    <g id="Page-1" stroke="none" stroke-width="1" fill="none" fill-rule="evenodd">
        <g id="Traibe-/-Brand-Guideline-/-Logos" transform="translate(-429.000000, -741.000000)">
            <g id="Group-11" transform="translate(429.000000, 741.000000)">
                <g id="Group-3" transform="translate(0.000000, 47.000000)">
                    <mask id="mask-2" fill="white">
                        <use xlink:href="#path-1"></use>
                    </mask>
                    <g id="Clip-2"></g>
                    <path d="M-0.000152941176,19.1509636 L-0.000152941176,11.4182818 L6.69484706,11.4182818 L6.69484706,0.224554545 L16.1007294,0.224554545 L16.1007294,11.4182818 L25.6649059,11.4182818 L25.6649059,19.1509636 L16.1007294,19.1509636 L16.1007294,37.1114636 C16.1007294,38.8300091 16.4050824,40.2526 17.0168471,41.3807818 C17.6270824,42.5081909 18.9959059,43.0715091 21.1217882,43.0715091 C21.7587882,43.0715091 22.4485529,43.0042818 23.1933765,42.8698273 C23.9374353,42.7353727 24.6012,42.5360091 25.1862,42.2663273 L25.5050824,49.8367364 C24.6539647,50.1589636 23.6445529,50.4124182 22.4760824,50.6009636 C21.3060824,50.7887364 20.1903765,50.8830091 19.1297294,50.8830091 C16.5779059,50.8830091 14.5055529,50.5221455 12.9119059,49.7957818 C11.3174941,49.0717364 10.0542,48.0787818 9.12661176,46.8161455 C8.1952,45.5558273 7.5582,44.1054182 7.21408235,42.4680091 C6.86690588,40.8298273 6.69484706,39.0718727 6.69484706,37.1926 L6.69484706,19.1509636 L-0.000152941176,19.1509636 Z" id="Fill-1" fill="#231F20" mask="url(#mask-2)"></path>
                </g>
                <path d="M29,57.1326911 L38.6502399,57.1326911 L38.6502399,63.6110938 L38.8185112,63.6110938 C39.9368312,61.3441579 41.5028012,59.5091672 43.5172263,58.1045681 C45.5308464,56.7015227 47.8810091,56 50.5669093,56 C50.9565903,56 51.376866,56.0147607 51.8253212,56.0396209 C52.2721661,56.0683654 52.6650676,56.1351771 53,56.2423866 L53,65.1493163 C52.3293301,64.9877253 51.7544701,64.8805158 51.2802509,64.8253574 C50.8036164,64.7725295 50.3430843,64.7453387 49.8946291,64.7453387 C47.6008253,64.7453387 45.7546714,65.1493163 44.3569727,65.9596022 C42.9576638,66.7691112 41.8667181,67.7409882 41.0841357,68.8744562 C40.2991378,70.0079242 39.769365,71.1693599 39.4891811,72.3564326 C39.2089973,73.5442822 39.0705156,74.4889683 39.0705156,75.190491 L39.0705156,96 L29,96 L29,57.1326911 Z" id="Fill-4" fill="#231F20"></path>
                <mask id="mask-4" fill="white">
                    <use xlink:href="#path-3"></use>
                </mask>
                <g id="Clip-7"></g>
                <path d="M59.435086,96 L69.5641042,96 L69.5641042,56.3911544 L59.435086,56.3911544 L59.435086,96 Z M58,42.940931 C58,41.3464434 58.6049713,39.95859 59.814914,38.7742039 C61.0240468,37.592193 62.5587466,37 64.4149639,37 C66.2728009,37 67.8334164,37.5644834 69.1000498,38.6918669 C70.3666833,39.8200421 71,41.2363968 71,42.940931 C71,44.6470486 70.3666833,46.0649866 69.1000498,47.1907867 C67.8334164,48.3181702 66.2728009,48.8826537 64.4149639,48.8826537 C62.5587466,48.8826537 61.0240468,48.2912524 59.814914,47.107658 C58.6049713,45.9264388 58,44.537002 58,42.940931 L58,42.940931 Z" id="Fill-6" fill="#231F20" mask="url(#mask-4)"></path>
                <path d="M108.324253,77.0541642 C108.324253,75.5281474 108.099041,74.0146905 107.650138,72.5137934 C107.200475,71.0136812 106.526361,69.6642868 105.627795,68.4640401 C104.728469,67.2645783 103.591757,66.2959031 102.21842,65.5595843 C100.842801,64.8224806 99.2313174,64.4551062 97.3809268,64.4551062 C95.6355336,64.4551062 94.0757882,64.8366103 92.7016906,65.6004037 C91.3260712,66.3649821 90.1505558,67.3462171 89.1728617,68.5456788 C88.1944068,69.7459255 87.4533375,71.1102347 86.9526973,72.6370365 C86.4490137,74.1638382 86.1994544,75.6922099 86.1994544,77.2182267 C86.1994544,78.7458134 86.4490137,80.2592703 86.9526973,81.7593825 C87.4533375,83.2594946 88.1944068,84.609674 89.1728617,85.8091358 C90.1505558,87.0101675 91.3260712,87.9772727 92.7016906,88.7143765 C94.0757882,89.4499103 95.6355336,89.8180697 97.3809268,89.8180697 C99.2313174,89.8180697 100.842801,89.4365655 102.21842,88.6727721 C103.591757,87.9097638 104.728469,86.9277437 105.627795,85.727497 C106.526361,84.5280353 107.200475,83.1637261 107.650138,81.6369243 C108.099041,80.1109076 108.324253,78.5817509 108.324253,77.0541642 L108.324253,77.0541642 Z M86.5159686,35 L86.5159686,62.5734898 L86.7533542,62.5734898 C87.2296472,61.9180248 87.8368067,61.2374402 88.5778759,60.527811 C89.3189452,59.8189668 90.2045762,59.1642868 91.2347691,58.5629859 C92.2664836,57.9640401 93.4678679,57.4592928 94.8427264,57.050314 C96.2175849,56.6405502 97.7773303,56.4364533 99.5219626,56.4364533 C102.21842,56.4364533 104.7026,56.9678903 106.976785,58.032334 C109.248687,59.0959928 111.204836,60.5552856 112.844471,62.4094273 C114.482584,64.2643541 115.751684,66.4458358 116.65101,68.9546576 C117.549576,71.4642644 118,74.1638382 118,77.0541642 C118,79.9468451 117.563271,82.6597638 116.690575,85.1952751 C115.818639,87.7323565 114.575408,89.9413128 112.963925,91.8221441 C111.350159,93.7045455 109.39401,95.2054426 107.095478,96.3232656 C104.795424,97.4403035 102.190269,98 99.284577,98 C96.5873587,98 94.0628537,97.3986992 91.7103012,96.2008074 C89.3577486,95.0005607 87.5195316,93.2555323 86.1994544,90.9641522 L86.0404365,90.9641522 L86.0404365,96.8547025 L77,96.8547025 L77,35 L86.5159686,35 Z" id="Fill-8" fill="#231F20" mask="url(#mask-4)"></path>
                <path d="M149.616274,72.6259538 C149.616274,71.388551 149.445989,70.2045781 149.108418,69.0748092 C148.768596,67.9450404 148.235234,66.9500076 147.50533,66.0897107 C146.775426,65.2286394 145.849732,64.5425701 144.729746,64.0307283 C143.60826,63.5196608 142.293233,63.2633527 140.781665,63.2633527 C137.967072,63.2633527 135.58232,64.1391365 133.628159,65.8868324 C131.673247,67.6360769 130.590019,69.8816764 130.382225,72.6259538 L149.616274,72.6259538 Z M159,76.9847397 L159,78.2747979 C159,78.7068822 158.972244,79.1366435 158.921233,79.5664048 L130.382225,79.5664048 C130.486497,80.9664199 130.838321,82.2448629 131.438448,83.4001851 C132.036323,84.5578303 132.831491,85.5528632 133.822449,86.3868324 C134.812658,87.2223502 135.934144,87.8797688 137.185407,88.3637342 C138.436671,88.848474 139.738195,89.0908438 141.09448,89.0908438 C143.440974,89.0908438 145.419891,88.64637 147.037232,87.7589711 C148.651571,86.8707978 149.980851,85.6473332 151.024321,84.0870288 L157.279138,89.2526819 C153.577108,94.4167863 148.209728,97 141.172497,97 C138.253632,97 135.568067,96.5276498 133.119551,95.586821 C130.668035,94.6459923 128.545088,93.3156682 126.74771,91.591977 C124.948081,89.8713832 123.540785,87.7589711 122.525071,85.2570635 C121.507857,82.755156 121,79.9171829 121,76.7415955 C121,73.621761 121.507857,70.7837879 122.525071,68.2269019 C123.540785,65.6723389 124.935328,63.4933331 126.707952,61.6898844 C128.479075,59.8879844 130.578016,58.4887437 133.001777,57.4929365 C135.426287,56.4979036 138.045088,56 140.859681,56 C143.464979,56 145.875987,56.4444738 148.092704,57.3310984 C150.30642,58.2192717 152.222323,59.538755 153.838913,61.2856765 C155.454003,63.0356954 156.71877,65.2147012 157.630962,67.8242427 C158.542404,70.4337841 159,73.487025 159,76.9847397 L159,76.9847397 Z" id="Fill-9" fill="#231F20" mask="url(#mask-4)"></path>
                <path d="M171.331079,108 L165.444578,108 L202.380465,11.0904638 C200.925585,10.4925635 197.655999,9.38528333 190.399511,7.69873872 C181.177222,5.55561575 166.97267,4.14239697 150.11849,7.00765921 L166.24523,20.4052838 L145.813042,37.1713386 C155.390484,35.8458636 171.102878,34.8659284 185.425815,38.2894897 L183.270754,43.3615474 C160.931957,38.3430678 136.921762,44.2692687 136.68032,44.3290588 L125,47.252558 L157.747265,20.3796595 L138.041739,4.00884003 L143.421992,2.81381603 C182.37119,-5.83710176 209.654087,8.16463502 210.796651,8.76564125 L213,9.92261706 L171.331079,108 Z" id="Fill-10" fill="#231F20" mask="url(#mask-4)"></path>
            </g>
        </g>
    </g>
</svg>